<mxfile host="app.diagrams.net" modified="2024-03-10T07:05:38.799Z" agent="Mozilla/5.0 (Windows NT 10.0; Win64; x64) AppleWebKit/537.36 (KHTML, like Gecko) Chrome/122.0.0.0 Safari/537.36 Edg/122.0.0.0" etag="jb9lvl7Su29TxINUa6hv" version="24.0.4" type="device">
  <diagram id="C5RBs43oDa-KdzZeNtuy" name="Page-1">
    <mxGraphModel dx="1386" dy="785" grid="1" gridSize="10" guides="1" tooltips="1" connect="1" arrows="1" fold="1" page="1" pageScale="1" pageWidth="827" pageHeight="1169" math="0" shadow="0">
      <root>
        <mxCell id="WIyWlLk6GJQsqaUBKTNV-0" />
        <mxCell id="WIyWlLk6GJQsqaUBKTNV-1" parent="WIyWlLk6GJQsqaUBKTNV-0" />
        <mxCell id="PD5u2o0YvLGbDbUuUKyN-2" style="edgeStyle=orthogonalEdgeStyle;rounded=0;orthogonalLoop=1;jettySize=auto;html=1;entryX=0.5;entryY=0;entryDx=0;entryDy=0;" edge="1" parent="WIyWlLk6GJQsqaUBKTNV-1" source="PD5u2o0YvLGbDbUuUKyN-0" target="PD5u2o0YvLGbDbUuUKyN-1">
          <mxGeometry relative="1" as="geometry" />
        </mxCell>
        <mxCell id="PD5u2o0YvLGbDbUuUKyN-6" style="edgeStyle=orthogonalEdgeStyle;rounded=0;orthogonalLoop=1;jettySize=auto;html=1;entryX=0.5;entryY=0;entryDx=0;entryDy=0;" edge="1" parent="WIyWlLk6GJQsqaUBKTNV-1" source="PD5u2o0YvLGbDbUuUKyN-0" target="PD5u2o0YvLGbDbUuUKyN-5">
          <mxGeometry relative="1" as="geometry" />
        </mxCell>
        <mxCell id="PD5u2o0YvLGbDbUuUKyN-0" value="&lt;div&gt;主线程&lt;/div&gt;&lt;div&gt;main.rs&lt;/div&gt;" style="rounded=1;whiteSpace=wrap;html=1;" vertex="1" parent="WIyWlLk6GJQsqaUBKTNV-1">
          <mxGeometry x="280" y="160" width="120" height="40" as="geometry" />
        </mxCell>
        <mxCell id="PD5u2o0YvLGbDbUuUKyN-4" style="edgeStyle=orthogonalEdgeStyle;rounded=0;orthogonalLoop=1;jettySize=auto;html=1;entryX=0.5;entryY=0;entryDx=0;entryDy=0;" edge="1" parent="WIyWlLk6GJQsqaUBKTNV-1" source="PD5u2o0YvLGbDbUuUKyN-1" target="PD5u2o0YvLGbDbUuUKyN-3">
          <mxGeometry relative="1" as="geometry" />
        </mxCell>
        <mxCell id="PD5u2o0YvLGbDbUuUKyN-1" value="读取配置文件" style="rounded=1;whiteSpace=wrap;html=1;" vertex="1" parent="WIyWlLk6GJQsqaUBKTNV-1">
          <mxGeometry x="200" y="240" width="120" height="40" as="geometry" />
        </mxCell>
        <mxCell id="PD5u2o0YvLGbDbUuUKyN-3" value="启动中台线程" style="rounded=1;whiteSpace=wrap;html=1;" vertex="1" parent="WIyWlLk6GJQsqaUBKTNV-1">
          <mxGeometry x="200" y="320" width="120" height="40" as="geometry" />
        </mxCell>
        <mxCell id="PD5u2o0YvLGbDbUuUKyN-8" style="edgeStyle=orthogonalEdgeStyle;rounded=0;orthogonalLoop=1;jettySize=auto;html=1;entryX=0.5;entryY=0;entryDx=0;entryDy=0;" edge="1" parent="WIyWlLk6GJQsqaUBKTNV-1" source="PD5u2o0YvLGbDbUuUKyN-5" target="PD5u2o0YvLGbDbUuUKyN-7">
          <mxGeometry relative="1" as="geometry" />
        </mxCell>
        <mxCell id="PD5u2o0YvLGbDbUuUKyN-5" value="解压缩前端App" style="rounded=1;whiteSpace=wrap;html=1;" vertex="1" parent="WIyWlLk6GJQsqaUBKTNV-1">
          <mxGeometry x="360" y="240" width="120" height="40" as="geometry" />
        </mxCell>
        <mxCell id="PD5u2o0YvLGbDbUuUKyN-7" value="启动HTTP服务器" style="rounded=1;whiteSpace=wrap;html=1;" vertex="1" parent="WIyWlLk6GJQsqaUBKTNV-1">
          <mxGeometry x="360" y="320" width="120" height="40" as="geometry" />
        </mxCell>
        <mxCell id="PD5u2o0YvLGbDbUuUKyN-11" style="edgeStyle=orthogonalEdgeStyle;rounded=0;orthogonalLoop=1;jettySize=auto;html=1;exitX=1;exitY=0.5;exitDx=0;exitDy=0;entryX=0;entryY=0.5;entryDx=0;entryDy=0;" edge="1" parent="WIyWlLk6GJQsqaUBKTNV-1" source="PD5u2o0YvLGbDbUuUKyN-9" target="PD5u2o0YvLGbDbUuUKyN-10">
          <mxGeometry relative="1" as="geometry" />
        </mxCell>
        <mxCell id="PD5u2o0YvLGbDbUuUKyN-13" style="edgeStyle=orthogonalEdgeStyle;rounded=0;orthogonalLoop=1;jettySize=auto;html=1;exitX=0.5;exitY=1;exitDx=0;exitDy=0;entryX=0.5;entryY=0;entryDx=0;entryDy=0;" edge="1" parent="WIyWlLk6GJQsqaUBKTNV-1" source="PD5u2o0YvLGbDbUuUKyN-9" target="PD5u2o0YvLGbDbUuUKyN-12">
          <mxGeometry relative="1" as="geometry" />
        </mxCell>
        <mxCell id="PD5u2o0YvLGbDbUuUKyN-9" value="中台线程&lt;div&gt;middleware.rs&lt;/div&gt;" style="rounded=1;whiteSpace=wrap;html=1;" vertex="1" parent="WIyWlLk6GJQsqaUBKTNV-1">
          <mxGeometry x="200" y="440" width="120" height="40" as="geometry" />
        </mxCell>
        <mxCell id="PD5u2o0YvLGbDbUuUKyN-10" value="启动后台线程" style="rounded=1;whiteSpace=wrap;html=1;" vertex="1" parent="WIyWlLk6GJQsqaUBKTNV-1">
          <mxGeometry x="360" y="440" width="120" height="40" as="geometry" />
        </mxCell>
        <mxCell id="PD5u2o0YvLGbDbUuUKyN-22" style="edgeStyle=orthogonalEdgeStyle;rounded=0;orthogonalLoop=1;jettySize=auto;html=1;exitX=0.5;exitY=1;exitDx=0;exitDy=0;entryX=0.5;entryY=0;entryDx=0;entryDy=0;" edge="1" parent="WIyWlLk6GJQsqaUBKTNV-1" source="PD5u2o0YvLGbDbUuUKyN-12" target="PD5u2o0YvLGbDbUuUKyN-21">
          <mxGeometry relative="1" as="geometry" />
        </mxCell>
        <mxCell id="PD5u2o0YvLGbDbUuUKyN-26" value="Yes" style="edgeLabel;html=1;align=center;verticalAlign=middle;resizable=0;points=[];" vertex="1" connectable="0" parent="PD5u2o0YvLGbDbUuUKyN-22">
          <mxGeometry y="2" relative="1" as="geometry">
            <mxPoint x="8" y="-10" as="offset" />
          </mxGeometry>
        </mxCell>
        <mxCell id="PD5u2o0YvLGbDbUuUKyN-12" value="收到API Request？" style="rhombus;whiteSpace=wrap;html=1;" vertex="1" parent="WIyWlLk6GJQsqaUBKTNV-1">
          <mxGeometry x="200" y="520" width="120" height="80" as="geometry" />
        </mxCell>
        <mxCell id="PD5u2o0YvLGbDbUuUKyN-16" style="edgeStyle=orthogonalEdgeStyle;rounded=0;orthogonalLoop=1;jettySize=auto;html=1;exitX=1;exitY=0.5;exitDx=0;exitDy=0;entryX=0;entryY=0.5;entryDx=0;entryDy=0;" edge="1" parent="WIyWlLk6GJQsqaUBKTNV-1" source="PD5u2o0YvLGbDbUuUKyN-12" target="PD5u2o0YvLGbDbUuUKyN-12">
          <mxGeometry relative="1" as="geometry">
            <Array as="points">
              <mxPoint x="340" y="560" />
              <mxPoint x="340" y="500" />
              <mxPoint x="180" y="500" />
              <mxPoint x="180" y="560" />
            </Array>
          </mxGeometry>
        </mxCell>
        <mxCell id="PD5u2o0YvLGbDbUuUKyN-17" value="No" style="edgeLabel;html=1;align=center;verticalAlign=middle;resizable=0;points=[];" vertex="1" connectable="0" parent="PD5u2o0YvLGbDbUuUKyN-16">
          <mxGeometry x="-0.775" y="1" relative="1" as="geometry">
            <mxPoint x="1" y="-4" as="offset" />
          </mxGeometry>
        </mxCell>
        <mxCell id="PD5u2o0YvLGbDbUuUKyN-24" style="edgeStyle=orthogonalEdgeStyle;rounded=0;orthogonalLoop=1;jettySize=auto;html=1;exitX=0.5;exitY=1;exitDx=0;exitDy=0;entryX=0.5;entryY=0;entryDx=0;entryDy=0;" edge="1" parent="WIyWlLk6GJQsqaUBKTNV-1" source="PD5u2o0YvLGbDbUuUKyN-21" target="PD5u2o0YvLGbDbUuUKyN-23">
          <mxGeometry relative="1" as="geometry" />
        </mxCell>
        <mxCell id="PD5u2o0YvLGbDbUuUKyN-25" value="Yes" style="edgeLabel;html=1;align=center;verticalAlign=middle;resizable=0;points=[];" vertex="1" connectable="0" parent="PD5u2o0YvLGbDbUuUKyN-24">
          <mxGeometry x="-0.5" y="4" relative="1" as="geometry">
            <mxPoint x="6" as="offset" />
          </mxGeometry>
        </mxCell>
        <mxCell id="PD5u2o0YvLGbDbUuUKyN-28" style="edgeStyle=orthogonalEdgeStyle;rounded=0;orthogonalLoop=1;jettySize=auto;html=1;exitX=1;exitY=0.5;exitDx=0;exitDy=0;entryX=0;entryY=0.5;entryDx=0;entryDy=0;" edge="1" parent="WIyWlLk6GJQsqaUBKTNV-1" source="PD5u2o0YvLGbDbUuUKyN-21" target="PD5u2o0YvLGbDbUuUKyN-27">
          <mxGeometry relative="1" as="geometry" />
        </mxCell>
        <mxCell id="PD5u2o0YvLGbDbUuUKyN-29" value="No" style="edgeLabel;html=1;align=center;verticalAlign=middle;resizable=0;points=[];" vertex="1" connectable="0" parent="PD5u2o0YvLGbDbUuUKyN-28">
          <mxGeometry x="-0.4" relative="1" as="geometry">
            <mxPoint as="offset" />
          </mxGeometry>
        </mxCell>
        <mxCell id="PD5u2o0YvLGbDbUuUKyN-21" value="是生成请求？" style="rhombus;whiteSpace=wrap;html=1;" vertex="1" parent="WIyWlLk6GJQsqaUBKTNV-1">
          <mxGeometry x="200" y="640" width="120" height="80" as="geometry" />
        </mxCell>
        <mxCell id="PD5u2o0YvLGbDbUuUKyN-23" value="整理成续写请求&lt;div&gt;发送后台&lt;/div&gt;" style="rounded=1;whiteSpace=wrap;html=1;" vertex="1" parent="WIyWlLk6GJQsqaUBKTNV-1">
          <mxGeometry x="200" y="760" width="120" height="40" as="geometry" />
        </mxCell>
        <mxCell id="PD5u2o0YvLGbDbUuUKyN-27" value="直接处理返回前台" style="rounded=1;whiteSpace=wrap;html=1;" vertex="1" parent="WIyWlLk6GJQsqaUBKTNV-1">
          <mxGeometry x="360" y="660" width="120" height="40" as="geometry" />
        </mxCell>
        <mxCell id="PD5u2o0YvLGbDbUuUKyN-32" style="edgeStyle=orthogonalEdgeStyle;rounded=0;orthogonalLoop=1;jettySize=auto;html=1;exitX=0.5;exitY=1;exitDx=0;exitDy=0;entryX=0.5;entryY=0;entryDx=0;entryDy=0;" edge="1" parent="WIyWlLk6GJQsqaUBKTNV-1" source="PD5u2o0YvLGbDbUuUKyN-30" target="PD5u2o0YvLGbDbUuUKyN-31">
          <mxGeometry relative="1" as="geometry" />
        </mxCell>
        <mxCell id="PD5u2o0YvLGbDbUuUKyN-30" value="后台线程&lt;div&gt;run.rs&lt;/div&gt;" style="rounded=1;whiteSpace=wrap;html=1;" vertex="1" parent="WIyWlLk6GJQsqaUBKTNV-1">
          <mxGeometry x="560" y="440" width="120" height="40" as="geometry" />
        </mxCell>
        <mxCell id="PD5u2o0YvLGbDbUuUKyN-36" style="edgeStyle=orthogonalEdgeStyle;rounded=0;orthogonalLoop=1;jettySize=auto;html=1;exitX=0.5;exitY=1;exitDx=0;exitDy=0;entryX=0.5;entryY=0;entryDx=0;entryDy=0;" edge="1" parent="WIyWlLk6GJQsqaUBKTNV-1" source="PD5u2o0YvLGbDbUuUKyN-31" target="PD5u2o0YvLGbDbUuUKyN-35">
          <mxGeometry relative="1" as="geometry" />
        </mxCell>
        <mxCell id="PD5u2o0YvLGbDbUuUKyN-31" value="收到续写请求？" style="rhombus;whiteSpace=wrap;html=1;" vertex="1" parent="WIyWlLk6GJQsqaUBKTNV-1">
          <mxGeometry x="560" y="520" width="120" height="80" as="geometry" />
        </mxCell>
        <mxCell id="PD5u2o0YvLGbDbUuUKyN-33" style="edgeStyle=orthogonalEdgeStyle;rounded=0;orthogonalLoop=1;jettySize=auto;html=1;exitX=1;exitY=0.5;exitDx=0;exitDy=0;entryX=0;entryY=0.5;entryDx=0;entryDy=0;" edge="1" parent="WIyWlLk6GJQsqaUBKTNV-1" source="PD5u2o0YvLGbDbUuUKyN-31" target="PD5u2o0YvLGbDbUuUKyN-31">
          <mxGeometry relative="1" as="geometry">
            <Array as="points">
              <mxPoint x="700" y="560" />
              <mxPoint x="700" y="500" />
              <mxPoint x="540" y="500" />
              <mxPoint x="540" y="560" />
            </Array>
          </mxGeometry>
        </mxCell>
        <mxCell id="PD5u2o0YvLGbDbUuUKyN-34" value="No" style="edgeLabel;html=1;align=center;verticalAlign=middle;resizable=0;points=[];" vertex="1" connectable="0" parent="PD5u2o0YvLGbDbUuUKyN-33">
          <mxGeometry x="-0.775" y="-3" relative="1" as="geometry">
            <mxPoint x="-3" y="-4" as="offset" />
          </mxGeometry>
        </mxCell>
        <mxCell id="PD5u2o0YvLGbDbUuUKyN-38" style="edgeStyle=orthogonalEdgeStyle;rounded=0;orthogonalLoop=1;jettySize=auto;html=1;entryX=0.5;entryY=0;entryDx=0;entryDy=0;" edge="1" parent="WIyWlLk6GJQsqaUBKTNV-1" source="PD5u2o0YvLGbDbUuUKyN-35" target="PD5u2o0YvLGbDbUuUKyN-37">
          <mxGeometry relative="1" as="geometry" />
        </mxCell>
        <mxCell id="PD5u2o0YvLGbDbUuUKyN-35" value="请求调度、排队" style="rounded=1;whiteSpace=wrap;html=1;" vertex="1" parent="WIyWlLk6GJQsqaUBKTNV-1">
          <mxGeometry x="560" y="640" width="120" height="40" as="geometry" />
        </mxCell>
        <mxCell id="PD5u2o0YvLGbDbUuUKyN-39" style="edgeStyle=orthogonalEdgeStyle;rounded=0;orthogonalLoop=1;jettySize=auto;html=1;exitX=1;exitY=0.5;exitDx=0;exitDy=0;entryX=1;entryY=0.5;entryDx=0;entryDy=0;" edge="1" parent="WIyWlLk6GJQsqaUBKTNV-1" source="PD5u2o0YvLGbDbUuUKyN-37" target="PD5u2o0YvLGbDbUuUKyN-35">
          <mxGeometry relative="1" as="geometry" />
        </mxCell>
        <mxCell id="PD5u2o0YvLGbDbUuUKyN-40" value="No" style="edgeLabel;html=1;align=center;verticalAlign=middle;resizable=0;points=[];" vertex="1" connectable="0" parent="PD5u2o0YvLGbDbUuUKyN-39">
          <mxGeometry x="-0.0571" relative="1" as="geometry">
            <mxPoint as="offset" />
          </mxGeometry>
        </mxCell>
        <mxCell id="PD5u2o0YvLGbDbUuUKyN-42" style="edgeStyle=orthogonalEdgeStyle;rounded=0;orthogonalLoop=1;jettySize=auto;html=1;exitX=0.5;exitY=1;exitDx=0;exitDy=0;entryX=0.5;entryY=0;entryDx=0;entryDy=0;" edge="1" parent="WIyWlLk6GJQsqaUBKTNV-1" source="PD5u2o0YvLGbDbUuUKyN-37" target="PD5u2o0YvLGbDbUuUKyN-41">
          <mxGeometry relative="1" as="geometry" />
        </mxCell>
        <mxCell id="PD5u2o0YvLGbDbUuUKyN-37" value="轮到处理该请求？" style="rhombus;whiteSpace=wrap;html=1;" vertex="1" parent="WIyWlLk6GJQsqaUBKTNV-1">
          <mxGeometry x="560" y="720" width="120" height="80" as="geometry" />
        </mxCell>
        <mxCell id="PD5u2o0YvLGbDbUuUKyN-44" style="edgeStyle=orthogonalEdgeStyle;rounded=0;orthogonalLoop=1;jettySize=auto;html=1;exitX=0.5;exitY=1;exitDx=0;exitDy=0;" edge="1" parent="WIyWlLk6GJQsqaUBKTNV-1" source="PD5u2o0YvLGbDbUuUKyN-41" target="PD5u2o0YvLGbDbUuUKyN-43">
          <mxGeometry relative="1" as="geometry" />
        </mxCell>
        <mxCell id="PD5u2o0YvLGbDbUuUKyN-41" value="匹配最长上下文&lt;div&gt;状态缓存&lt;/div&gt;" style="rounded=1;whiteSpace=wrap;html=1;" vertex="1" parent="WIyWlLk6GJQsqaUBKTNV-1">
          <mxGeometry x="560" y="840" width="120" height="40" as="geometry" />
        </mxCell>
        <mxCell id="PD5u2o0YvLGbDbUuUKyN-46" style="edgeStyle=orthogonalEdgeStyle;rounded=0;orthogonalLoop=1;jettySize=auto;html=1;exitX=0.5;exitY=1;exitDx=0;exitDy=0;entryX=0.5;entryY=0;entryDx=0;entryDy=0;" edge="1" parent="WIyWlLk6GJQsqaUBKTNV-1" source="PD5u2o0YvLGbDbUuUKyN-43" target="PD5u2o0YvLGbDbUuUKyN-45">
          <mxGeometry relative="1" as="geometry" />
        </mxCell>
        <mxCell id="PD5u2o0YvLGbDbUuUKyN-43" value="生成文字&lt;div&gt;直到停止&lt;/div&gt;" style="rounded=1;whiteSpace=wrap;html=1;" vertex="1" parent="WIyWlLk6GJQsqaUBKTNV-1">
          <mxGeometry x="560" y="920" width="120" height="40" as="geometry" />
        </mxCell>
        <mxCell id="PD5u2o0YvLGbDbUuUKyN-48" style="edgeStyle=orthogonalEdgeStyle;rounded=0;orthogonalLoop=1;jettySize=auto;html=1;exitX=0.5;exitY=1;exitDx=0;exitDy=0;entryX=0.5;entryY=0;entryDx=0;entryDy=0;" edge="1" parent="WIyWlLk6GJQsqaUBKTNV-1" source="PD5u2o0YvLGbDbUuUKyN-45" target="PD5u2o0YvLGbDbUuUKyN-47">
          <mxGeometry relative="1" as="geometry" />
        </mxCell>
        <mxCell id="PD5u2o0YvLGbDbUuUKyN-45" value="缓存当前上下文&lt;div&gt;以及状态&lt;/div&gt;" style="rounded=1;whiteSpace=wrap;html=1;" vertex="1" parent="WIyWlLk6GJQsqaUBKTNV-1">
          <mxGeometry x="560" y="1000" width="120" height="40" as="geometry" />
        </mxCell>
        <mxCell id="PD5u2o0YvLGbDbUuUKyN-47" value="将结果发送前台&lt;div&gt;作为Response&lt;/div&gt;" style="rounded=1;whiteSpace=wrap;html=1;" vertex="1" parent="WIyWlLk6GJQsqaUBKTNV-1">
          <mxGeometry x="560" y="1080" width="120" height="40" as="geometry" />
        </mxCell>
      </root>
    </mxGraphModel>
  </diagram>
</mxfile>
